<svg viewBox="0 0 992.64 532.32" xmlns="http://www.w3.org/2000/svg"><path d="m977.76 139.93c-4.16-4.39-10.28-9.26-18.85-12.64-2.16-10.02-6.67-18.8-13.4-25.91-7.29-7.71-20.61-16.9-42.64-16.9-1.27 0-2.56.03-3.86.1-.44-10.5-3.79-20.26-9.9-28.11-5.76-7.41-13.7-12.75-22.8-15.58-1.17-8.53-4.35-16.42-9.44-22.97-8.85-11.39-22.81-17.91-38.31-17.91-1.87 0-3.79.09-5.71.28-29.91 2.9-58.23 27.76-65.88 57.83-4.22 16.56-1.36 32.93 7.83 44.98l-7.01.68c-8.71.84-16.32 6.24-19.99 14.18l-2.45 5.3c-1.21-1.67-2.63-3.19-4.24-4.52-10.66-9.96-23.84-15.07-39.18-15.2-.02 0-.05 0-.07 0h-.38c-14.47 0-28.58 4.3-40.81 12.44-10.72 7.13-19.48 16.81-25.38 28l-.5.88c-.96-5.83-4-11.17-8.61-14.98-10.66-9.96-23.83-15.07-39.18-15.2-.03 0-.05 0-.08 0h-.38c-14.47 0-28.58 4.3-40.81 12.44-3.59 2.39-6.95 5.07-10.07 7.99 1.02-5.13 1.55-10.27 1.55-15.35 0-22.39-9.34-41.92-26.3-55-2.94-2.26-6.09-4.3-9.42-6.13-4.14-12.85-11.88-23.98-22.83-32.42-14.04-10.83-32.9-16.79-53.11-16.79-3.36 0-6.78.17-10.16.49-32.77 3.18-62.98 20.45-92.35 52.8-23.76 26.17-44.41 59.15-64.37 91.04-18.67 29.83-36.5 58.3-55.42 79.43-28.46-16.47-52.82-24.22-75.59-24.22-3.13 0-6.26.15-9.32.45-27.64 2.68-51.62 13.09-69.36 30.11-9.24 8.86-16.42 19.23-21.36 30.8-5.06 11.86-7.62 24.71-7.62 38.18 0 27.44 11.58 52.02 32.61 69.23 2.2 1.8 4.49 3.49 6.85 5.09 5.51 12.82 14.08 24.21 25.39 33.46 18.96 15.51 44.56 24.06 72.08 24.06 4.36 0 8.79-.22 13.19-.64 23.44-2.27 46.47-10.3 68.72-23.94 26.82 30.07 50.94 52.82 74.92 70.75 18.76 14.03 37.47 24.97 55.6 32.5 21.29 8.85 42.5 13.34 63.04 13.34 4.55 0 9.14-.22 13.64-.66 30.44-2.95 59.33-14.91 81.33-33.68 24.32-20.74 37.71-47.68 37.71-75.87 0-13.57-3.49-26.04-9.68-36.7 5.61-.58 11.25-1.6 16.77-3.05 16.62-3.92 33.03-11.8 49.05-23.52 10.78 9.56 25.83 14.97 42.03 14.97 2.25 0 4.51-.11 6.73-.32 23.28-2.26 44.24-11.24 61.26-26.12 6.57 7.32 18.22 15.31 37.81 15.31 2.51 0 5.15-.13 7.83-.39 18.99-1.84 36.22-11.6 51.54-29.12 8.56 9.79 23.5 20.31 48.17 20.31 2.88 0 5.87-.15 8.88-.44 24.06-2.33 48.07-13.85 69.43-33.32 20.82-18.98 38.24-44.86 50.35-74.84 1.19-2.94 1.8-6.07 1.8-9.24v-2.54c0-4.81-1.39-9.36-3.85-13.22 5.45-11.52 8.69-23.64 9.31-35.43.98-17.88-4.13-33.26-14.76-44.5z" fill="#2f482a"/><g fill="#fdb20b"><path d="m430.3 335.5c-11.83 1.15-25.35 7.1-29.58 13.01 4.65-.03 6.76 5.68 6.76 8.64 0 9.3-8.87 19.87-25.77 21.51-44.37 4.3-95.5-38.92-146.62-78.75 72.26-89.82 115.35-226.68 152.96-230.32 10.99-1.06 13.1 5.49 13.1 10.56 0 5.49-3.8 11.78-10.56 12.43-2.96.29-5.49-1.16-5.49-4.54-11.41 7.02-16.9 18.96-17.32 29.14-.42 16.52 13.52 29.54 37.18 27.24 30.85-2.99 55.35-34.52 55.35-63.25 0-34.65-31.27-49.79-62.54-46.76-93.8 9.09-139.86 166.09-210.85 230.01-29.58-19.53-58.73-33.18-86.2-30.52-44.37 4.3-76.06 33.15-76.06 74.55 0 45.64 42.25 72.81 90.85 68.1 27.89-2.7 52.82-14.84 75.21-32.22 51.13 60.12 123.38 131.71 200.71 124.22 51.55-4.99 96.76-41.07 96.76-85.01 0-30.85-25.77-51.17-57.89-48.06zm-297.05-45.16c-12.68 1.23-26.2-4.22-26.2-13.94 0-4.23 2.96-7.89 8.87-8.47 4.23-.41 13.52 2.91 23.66 14.19l5.07 6.27c-3.8.79-7.61 1.58-11.41 1.95z"/><path d="m683.4 167.74c1.27-14.91 8.03-26.55 21.97-30.02-1.27-.72-7.61-9.4-23.66-9.54-20.7-.11-37.18 12.9-44.79 27.58l-1.27 2.24c-10.92 23.19-33.38 64.31-59.67 89.5.03-.3.07-.61.09-.91 1.69-26.36-8.87-47.73-7.61-67.72 1.27-14.91 8.03-26.55 21.97-30.02-1.27-.72-7.61-9.4-23.66-9.54-20.7-.11-37.18 12.9-44.79 27.58-.42.89-.85 1.35-.85 1.77-16.11 30.07-55.65 101.98-71.62 106.54-11.16-.57-.82-22.69 4.86-35l39.3-87.05-51.13 4.95-9.72 25.45-1.69.16c1.27-13.64-3.8-28.79-22.82-26.95-49.02 4.75-104.79 92.97-104.79 147.48 0 21.55 11.41 33.97 28.31 32.33 21.13-2.05 39.72-27.09 52.82-54.98-4.52 24.68-1.84 49.06 22.02 48.08l-.05.07c.32-.03.63-.09.95-.13.39-.03.77-.04 1.17-.08 6.55-.63 12.67-2.84 18.37-6.16 11.89-6.09 23.55-16.01 34.87-28.16.85 19.36 20.7 28.84 38.03 27.16 4.85-.47 9.5-1.34 13.95-2.53 23.15-5.38 44.31-20.17 62.95-39.15-1.27 22.1 20.28 31.42 38.45 29.66 45.21-4.38 73.1-40.89 75.64-74.94 1.69-26.36-8.87-47.73-7.61-67.72zm-307.61 105.86c-17.32 1.68 20.7-81.02 35.92-82.5 9.3-.9-7.61 38.34-11.41 46.32-8.45 17.3-18.59 35.61-24.51 36.18zm111.13-8.23c0-.85 0-1.69.42-2.58 10.14-14.5 19.01-29.73 27.47-44.07 2.11-3.58 5.49-1.8 5.92 1.12v.42c.42 7.14.42 13.48 0 21.13-1.27 14.91-12.25 28.65-25.35 29.92-5.07.49-8.87-1.68-8.45-5.94zm148.73-35.12c-1.27 14.91-12.25 28.65-25.35 29.92-5.07.49-8.87-1.68-8.45-5.94 0-1.27.42-3.42 1.69-6.08 10.14-13.66 18.59-27.58 26.2-40.57 2.96-4.51 5.92-2.69 5.92.69v.42c.42 7.14.42 13.9 0 21.55z"/><path d="m797.06 96.72c19.44-1.88 38.87-19.4 43.94-39.33s-6.34-34.46-25.77-32.57c-19.44 1.88-39.3 19.44-44.37 39.37s6.76 34.42 26.2 32.53z"/><path d="m868.05 217.03c35.92-3.48 65.92-39.77 67.61-72.47 1.27-22.94-12.25-37.69-38.45-35.15-55.24 5.35-101.78 67.34-111.41 116.06-6.85 11.07-13.86 18.61-21.69 19.37-4.65.45-7.18-3.11-5.92-8.72.85-6.42 5.92-17.05 12.25-31.19l36.76-82.16-57.04 5.53-40.56 87.59c-18.17 36.41-33.8 87.78 12.68 83.28 30.1-2.92 50.58-38.91 62.37-66.57-.44 3.54-.68 6.99-.68 10.31 0 29.58 13.94 50.2 46.9 47.01 37.18-3.6 76.9-37.45 99.3-92.86v-2.54c-16.48 24.84-44.37 40.64-59.16 42.07-19.01 1.84-26.2-6.34-26.2-21.12 0-3.8.85-9.8 2.54-16.3.85 12.17 7.18 19.16 20.7 17.85zm-8.03-43.17c10.14-19.15 23.24-33.1 29.16-33.67 2.54-.25 4.65 1.24 4.65 4.2 0 13.94-21.13 40.08-31.69 41.1-7.61.74-3.8-8.93-2.11-11.63z"/></g></svg>